#!OML:ASF H:\BabyWalks\Project 1\Capture day 1\Session 1\baby.ASF
:FULLY-SPECIFIED
:DEGREES
514
root 27.9123 16.6939 0.829485 -156.341 82.7402 -154.815
lowerback 28.4195 0.316594 6.22455
upperback 7.9135 3.48284 4.82836
thorax -6.7645 1.99851 0.590514
lowerneck -0.483811 -4.0038 8.33088
upperneck -11.896 -6.31272 -13.8572
head -4.12273 -2.74244 -5.45283
rclavicle 5.96354e-014 5.725e-014
rhumerus -34.5684 12.7949 -53.9524
rradius 50.5133
rwrist -6.50123
rhand -13.8198 -20.3404
rfingers 7.12502
rthumb 12.3028 -49.9585
lclavicle 5.96354e-014 5.725e-014
lhumerus -51.1487 -2.77138 80.0662
lradius 53.5829
lwrist -2.13822
lhand -9.41337 4.68912
lfingers 7.12502
lthumb 16.5485 34.0035
rfemur -25.9044 7.76795 19.3443
rtibia 45.0724
rfoot -18.417 7.60494
rtoes -5.61101
lfemur -21.8077 -2.51906 -6.01498
ltibia 70.8305
lfoot -18.1609 -30.0334
ltoes -4.69835
515
root 28.06 16.673 0.831255 -154.313 83.2387 -152.684
lowerback 28.3106 0.379892 6.37232
upperback 7.97495 3.59495 4.883
thorax -6.63421 2.05632 0.534907
lowerneck -0.392957 -3.88621 8.45098
upperneck -11.8218 -6.16662 -14.1405
head -4.10917 -2.66189 -5.56951
rclavicle 3.18055e-015 0
rhumerus -33.649 11.7784 -53.9513
rradius 49.7124
rwrist -6.28803
rhand -15.1325 -21.0162
rfingers 7.12502
rthumb 11.0369 -50.706
lclavicle 3.18055e-015 0
lhumerus -51.1066 -2.53288 80.2413
lradius 52.3335
lwrist -2.60957
lhand -9.16966 4.94088
lfingers 7.12502
lthumb 16.7831 34.2355
rfemur -25.6096 8.06607 19.622
rtibia 45.6807
rfoot -19.1088 7.75651
rtoes -5.32127
lfemur -22.6343 -2.03894 -5.83351
ltibia 72.4272
lfoot -18.3551 -29.7899
ltoes -4.90127
516
root 28.2064 16.6603 0.833349 -153.282 83.7937 -151.588
lowerback 28.2213 0.479249 6.33478
upperback 8.01709 3.69481 4.88695
thorax -6.54347 2.10573 0.531536
lowerneck -0.386156 -3.73814 8.56608
upperneck -11.5826 -5.97063 -14.453
head -4.02585 -2.5638 -5.69727
rclavicle 2.94201e-014 2.38542e-014
rhumerus -32.7813 10.7264 -54.0655
rradius 48.929
rwrist -5.97718
rhand -16.5048 -21.8068
rfingers 7.12502
rthumb 9.7131 -51.5628
lclavicle 2.94201e-014 2.38542e-014
lhumerus -50.969 -2.37976 80.444
lradius 51.008
lwrist -3.19562
lhand -8.70894 5.17528
lfingers 7.12502
lthumb 17.2266 34.4317
rfemur -25.3126 8.39801 19.7089
rtibia 46.2158
rfoot -19.7694 7.89632
rtoes -5.0032
lfemur -23.4556 -1.54288 -5.87695
ltibia 73.7219
lfoot -18.583 -29.4111
ltoes -5.20763
517
root 28.3512 16.6553 0.83542 -152.88 84.3674 -151.132
lowerback 28.1715 0.594367 6.19621
upperback 8.04314 3.78662 4.85965
thorax -6.4947 2.14913 0.552128
lowerneck -0.435103 -3.56823 8.6741
upperneck -11.2232 -5.73727 -14.7862
head -3.89217 -2.45236 -5.83179
rclavicle 2.22639e-014 3.49861e-014
rhumerus -31.9957 9.65582 -54.2984
rradius 48.2183
rwrist -5.58477
rhand -17.8953 -22.7093
rfingers 7.12502
rthumb 8.37138 -52.5234
lclavicle 2.22639e-014 3.49861e-014
lhumerus -50.7611 -2.30832 80.6686
lradius 49.6594
lwrist -3.92306
lhand -8.01219 5.37844
lfingers 7.12502
lthumb 17.8971 34.5749
rfemur -24.9696 8.78712 19.6962
rtibia 46.6512
rfoot -20.3824 7.93157
rtoes -4.72224
lfemur -24.2533 -1.04439 -6.05596
ltibia 74.7131
lfoot -18.8273 -28.9604
ltoes -5.63486
518
root 28.4942 16.6573 0.83665 -152.591 84.9298 -150.791
lowerback 28.1655 0.710136 6.04247
upperback 8.0525 3.87776 4.81443
thorax -6.48576 2.19033 0.560164
lowerneck -0.504228 -3.3902 8.76781
upperneck -10.8023 -5.48646 -15.1217
head -3.73355 -2.33478 -5.9646
rclavicle 2.14687e-014 1.90833e-014
rhumerus -31.3243 8.58756 -54.6546
rradius 47.6355
rwrist -5.14487
rhand -19.2555 -23.7115
rfingers 7.12502
rthumb 7.05851 -53.5738
lclavicle 2.14687e-014 1.90833e-014
lhumerus -50.5085 -2.30314 80.8994
lradius 48.3439
lwrist -4.7955
lhand -7.06547 5.54465
lfingers 7.12502
lthumb 18.8079 34.6554
rfemur -24.5637 9.24133 19.6642
rtibia 46.9618
rfoot -20.9408 7.87193
rtoes -4.46935
lfemur -25.0257 -0.549065 -6.28949
ltibia 75.4022
lfoot -19.0755 -28.4907
ltoes -6.18784
